<mxfile host="Electron" agent="Mozilla/5.0 (Windows NT 10.0; Win64; x64) AppleWebKit/537.36 (KHTML, like Gecko) draw.io/26.0.16 Chrome/132.0.6834.196 Electron/34.2.0 Safari/537.36" version="26.0.16">
  <diagram name="Page-1" id="lriFDgV11a9Gcr8wNxUE">
    <mxGraphModel dx="1091" dy="638" grid="1" gridSize="10" guides="1" tooltips="1" connect="1" arrows="1" fold="1" page="1" pageScale="1" pageWidth="850" pageHeight="1100" math="0" shadow="0">
      <root>
        <mxCell id="0" />
        <mxCell id="1" parent="0" />
        <mxCell id="j7DcF1A5xjOVWfaX7O3p-1" value="User" style="shape=umlActor;verticalLabelPosition=bottom;verticalAlign=top;html=1;outlineConnect=0;" parent="1" vertex="1">
          <mxGeometry x="170" y="390" width="60" height="120" as="geometry" />
        </mxCell>
        <mxCell id="j7DcF1A5xjOVWfaX7O3p-2" value="" style="endArrow=none;html=1;rounded=0;" parent="1" edge="1">
          <mxGeometry width="50" height="50" relative="1" as="geometry">
            <mxPoint x="240" y="450" as="sourcePoint" />
            <mxPoint x="360" y="450" as="targetPoint" />
          </mxGeometry>
        </mxCell>
        <mxCell id="vjrnqQ3IrU5_B_j3qV5Q-4" style="edgeStyle=orthogonalEdgeStyle;rounded=0;orthogonalLoop=1;jettySize=auto;html=1;entryX=0;entryY=0.5;entryDx=0;entryDy=0;dashed=1;endArrow=open;endFill=0;" edge="1" parent="1" source="j7DcF1A5xjOVWfaX7O3p-9" target="vjrnqQ3IrU5_B_j3qV5Q-3">
          <mxGeometry relative="1" as="geometry" />
        </mxCell>
        <mxCell id="vjrnqQ3IrU5_B_j3qV5Q-8" style="edgeStyle=orthogonalEdgeStyle;rounded=0;orthogonalLoop=1;jettySize=auto;html=1;entryX=0;entryY=0.5;entryDx=0;entryDy=0;dashed=1;endArrow=open;endFill=0;" edge="1" parent="1" source="j7DcF1A5xjOVWfaX7O3p-9" target="vjrnqQ3IrU5_B_j3qV5Q-6">
          <mxGeometry relative="1" as="geometry" />
        </mxCell>
        <mxCell id="vjrnqQ3IrU5_B_j3qV5Q-9" style="edgeStyle=orthogonalEdgeStyle;rounded=0;orthogonalLoop=1;jettySize=auto;html=1;entryX=0;entryY=0.5;entryDx=0;entryDy=0;dashed=1;endArrow=open;endFill=0;" edge="1" parent="1" source="j7DcF1A5xjOVWfaX7O3p-9" target="vjrnqQ3IrU5_B_j3qV5Q-7">
          <mxGeometry relative="1" as="geometry" />
        </mxCell>
        <mxCell id="j7DcF1A5xjOVWfaX7O3p-9" value="Open Client Window" style="ellipse;whiteSpace=wrap;html=1;" parent="1" vertex="1">
          <mxGeometry x="440" y="90" width="120" height="60" as="geometry" />
        </mxCell>
        <mxCell id="vjrnqQ3IrU5_B_j3qV5Q-26" style="edgeStyle=orthogonalEdgeStyle;rounded=0;orthogonalLoop=1;jettySize=auto;html=1;exitX=1;exitY=0.5;exitDx=0;exitDy=0;entryX=0;entryY=0.5;entryDx=0;entryDy=0;dashed=1;endArrow=open;endFill=0;" edge="1" parent="1" source="j7DcF1A5xjOVWfaX7O3p-11" target="vjrnqQ3IrU5_B_j3qV5Q-24">
          <mxGeometry relative="1" as="geometry" />
        </mxCell>
        <mxCell id="vjrnqQ3IrU5_B_j3qV5Q-27" style="edgeStyle=orthogonalEdgeStyle;rounded=0;orthogonalLoop=1;jettySize=auto;html=1;entryX=0;entryY=0.5;entryDx=0;entryDy=0;dashed=1;endArrow=open;endFill=0;" edge="1" parent="1" source="j7DcF1A5xjOVWfaX7O3p-11" target="vjrnqQ3IrU5_B_j3qV5Q-25">
          <mxGeometry relative="1" as="geometry" />
        </mxCell>
        <mxCell id="j7DcF1A5xjOVWfaX7O3p-11" value="Open Order Window" style="ellipse;whiteSpace=wrap;html=1;" parent="1" vertex="1">
          <mxGeometry x="450" y="690" width="120" height="60" as="geometry" />
        </mxCell>
        <mxCell id="AhljGWw4bqRuT-1G8rsE-2" value="" style="endArrow=classic;html=1;rounded=0;entryX=0;entryY=0.5;entryDx=0;entryDy=0;" parent="1" edge="1">
          <mxGeometry width="50" height="50" relative="1" as="geometry">
            <mxPoint x="360" y="180" as="sourcePoint" />
            <mxPoint x="439.9999999999968" y="120" as="targetPoint" />
            <Array as="points">
              <mxPoint x="360" y="120" />
            </Array>
          </mxGeometry>
        </mxCell>
        <mxCell id="AhljGWw4bqRuT-1G8rsE-3" value="" style="endArrow=classic;html=1;rounded=0;entryX=0;entryY=0.5;entryDx=0;entryDy=0;" parent="1" target="j7DcF1A5xjOVWfaX7O3p-11" edge="1">
          <mxGeometry width="50" height="50" relative="1" as="geometry">
            <mxPoint x="360" y="180" as="sourcePoint" />
            <mxPoint x="450" y="250" as="targetPoint" />
            <Array as="points">
              <mxPoint x="360" y="720" />
            </Array>
          </mxGeometry>
        </mxCell>
        <mxCell id="1bNTjT2nhQh4DVMOsxpc-2" style="edgeStyle=orthogonalEdgeStyle;rounded=0;orthogonalLoop=1;jettySize=auto;html=1;exitX=0;exitY=0.5;exitDx=0;exitDy=0;startArrow=classic;startFill=1;endArrow=none;" parent="1" source="1bNTjT2nhQh4DVMOsxpc-1" edge="1">
          <mxGeometry relative="1" as="geometry">
            <mxPoint x="360" y="350" as="targetPoint" />
          </mxGeometry>
        </mxCell>
        <mxCell id="vjrnqQ3IrU5_B_j3qV5Q-18" style="edgeStyle=orthogonalEdgeStyle;rounded=0;orthogonalLoop=1;jettySize=auto;html=1;entryX=0;entryY=0.5;entryDx=0;entryDy=0;dashed=1;endArrow=open;endFill=0;" edge="1" parent="1" source="1bNTjT2nhQh4DVMOsxpc-1" target="vjrnqQ3IrU5_B_j3qV5Q-14">
          <mxGeometry relative="1" as="geometry" />
        </mxCell>
        <mxCell id="1bNTjT2nhQh4DVMOsxpc-1" value="Open Product Window" style="ellipse;whiteSpace=wrap;html=1;" parent="1" vertex="1">
          <mxGeometry x="450" y="420" width="120" height="60" as="geometry" />
        </mxCell>
        <mxCell id="vjrnqQ3IrU5_B_j3qV5Q-1" value="Add Client" style="ellipse;whiteSpace=wrap;html=1;" vertex="1" parent="1">
          <mxGeometry x="640" y="20" width="120" height="60" as="geometry" />
        </mxCell>
        <mxCell id="vjrnqQ3IrU5_B_j3qV5Q-2" style="edgeStyle=orthogonalEdgeStyle;rounded=0;orthogonalLoop=1;jettySize=auto;html=1;entryX=0.008;entryY=0.375;entryDx=0;entryDy=0;dashed=1;endArrow=open;endFill=0;exitX=1;exitY=0.5;exitDx=0;exitDy=0;entryPerimeter=0;" edge="1" parent="1" source="j7DcF1A5xjOVWfaX7O3p-9" target="vjrnqQ3IrU5_B_j3qV5Q-1">
          <mxGeometry relative="1" as="geometry">
            <mxPoint x="580" y="120" as="sourcePoint" />
            <mxPoint x="580" y="290" as="targetPoint" />
          </mxGeometry>
        </mxCell>
        <mxCell id="vjrnqQ3IrU5_B_j3qV5Q-3" value="View All Clients" style="ellipse;whiteSpace=wrap;html=1;" vertex="1" parent="1">
          <mxGeometry x="640" y="90" width="120" height="60" as="geometry" />
        </mxCell>
        <mxCell id="vjrnqQ3IrU5_B_j3qV5Q-6" value="Delete Client" style="ellipse;whiteSpace=wrap;html=1;" vertex="1" parent="1">
          <mxGeometry x="640" y="170" width="120" height="60" as="geometry" />
        </mxCell>
        <mxCell id="vjrnqQ3IrU5_B_j3qV5Q-7" value="Update Client" style="ellipse;whiteSpace=wrap;html=1;" vertex="1" parent="1">
          <mxGeometry x="640" y="250" width="120" height="60" as="geometry" />
        </mxCell>
        <mxCell id="vjrnqQ3IrU5_B_j3qV5Q-14" value="Add Product" style="ellipse;whiteSpace=wrap;html=1;" vertex="1" parent="1">
          <mxGeometry x="640" y="320" width="120" height="60" as="geometry" />
        </mxCell>
        <mxCell id="vjrnqQ3IrU5_B_j3qV5Q-15" value="View All Products" style="ellipse;whiteSpace=wrap;html=1;" vertex="1" parent="1">
          <mxGeometry x="640" y="390" width="120" height="60" as="geometry" />
        </mxCell>
        <mxCell id="vjrnqQ3IrU5_B_j3qV5Q-16" value="Delete Product" style="ellipse;whiteSpace=wrap;html=1;" vertex="1" parent="1">
          <mxGeometry x="640" y="470" width="120" height="60" as="geometry" />
        </mxCell>
        <mxCell id="vjrnqQ3IrU5_B_j3qV5Q-17" value="Update Product" style="ellipse;whiteSpace=wrap;html=1;" vertex="1" parent="1">
          <mxGeometry x="640" y="550" width="120" height="60" as="geometry" />
        </mxCell>
        <mxCell id="vjrnqQ3IrU5_B_j3qV5Q-19" style="edgeStyle=orthogonalEdgeStyle;rounded=0;orthogonalLoop=1;jettySize=auto;html=1;entryX=0;entryY=0.5;entryDx=0;entryDy=0;dashed=1;endArrow=open;endFill=0;" edge="1" parent="1" target="vjrnqQ3IrU5_B_j3qV5Q-15">
          <mxGeometry relative="1" as="geometry">
            <mxPoint x="569.52" y="449.52" as="sourcePoint" />
            <mxPoint x="639.52" y="349.52" as="targetPoint" />
          </mxGeometry>
        </mxCell>
        <mxCell id="vjrnqQ3IrU5_B_j3qV5Q-20" style="edgeStyle=orthogonalEdgeStyle;rounded=0;orthogonalLoop=1;jettySize=auto;html=1;entryX=0;entryY=0.5;entryDx=0;entryDy=0;dashed=1;endArrow=open;endFill=0;" edge="1" parent="1" target="vjrnqQ3IrU5_B_j3qV5Q-16">
          <mxGeometry relative="1" as="geometry">
            <mxPoint x="569.04" y="449.47999999999996" as="sourcePoint" />
            <mxPoint x="639.52" y="419.96" as="targetPoint" />
          </mxGeometry>
        </mxCell>
        <mxCell id="vjrnqQ3IrU5_B_j3qV5Q-21" style="edgeStyle=orthogonalEdgeStyle;rounded=0;orthogonalLoop=1;jettySize=auto;html=1;entryX=0;entryY=0.5;entryDx=0;entryDy=0;dashed=1;endArrow=open;endFill=0;" edge="1" parent="1" target="vjrnqQ3IrU5_B_j3qV5Q-17">
          <mxGeometry relative="1" as="geometry">
            <mxPoint x="569.04" y="449.47999999999996" as="sourcePoint" />
            <mxPoint x="639.52" y="419.96" as="targetPoint" />
          </mxGeometry>
        </mxCell>
        <mxCell id="vjrnqQ3IrU5_B_j3qV5Q-24" value="Add Order" style="ellipse;whiteSpace=wrap;html=1;" vertex="1" parent="1">
          <mxGeometry x="640" y="630" width="120" height="60" as="geometry" />
        </mxCell>
        <mxCell id="vjrnqQ3IrU5_B_j3qV5Q-25" value="View Bills" style="ellipse;whiteSpace=wrap;html=1;" vertex="1" parent="1">
          <mxGeometry x="640" y="730" width="120" height="60" as="geometry" />
        </mxCell>
      </root>
    </mxGraphModel>
  </diagram>
</mxfile>
